<?xml version="1.0" encoding="utf-8"?>
<!-- Generator: Adobe Illustrator 28.0.0, SVG Export Plug-In . SVG Version: 6.00 Build 0)  -->
<svg version="1.1" id="Layer_1" xmlns="http://www.w3.org/2000/svg" xmlns:xlink="http://www.w3.org/1999/xlink" x="0px" y="0px"
	 viewBox="0 0 127 127" style="enable-background:new 0 0 127 127;" xml:space="preserve">
<style type="text/css">
	.st0{fill:#FF6D43;}
</style>
<g>
	<path class="st0" d="M63.5,19c12.2,0,24.5,0,36.7,0c8.6,0,13.9,5.3,13.9,13.8c0,16.9,0,33.8,0,50.7c0,8.6-5.4,14-14.1,14.1
		c-24.5,0-49,0-73.5,0c-8.6,0-13.8-6.6-13.7-13.6c0.3-17.2,0.1-34.5,0.1-51.7c0-8,5.3-13.3,13.3-13.3C38.6,19,51.1,19,63.5,19z
		 M63.3,91.6c12.2,0,24.3,0,36.5,0c6.2,0,8.7-2.5,8.7-8.6c0-16.6,0-33.1,0-49.7c0-5.8-2.7-8.6-8.5-8.6c-24.4,0-48.8,0-73.2,0
		c-5.5,0-8.1,2.7-8.1,8.1c0,16.9,0,33.8,0,50.7c0,5.7,2.4,8.1,8,8.1C38.9,91.6,51.1,91.6,63.3,91.6z"/>
	<path class="st0" d="M37.7,78.6c-3.3,0.1-3.4-0.2-2.5-3.1C37.6,68,42,62.7,49.1,58.8c10.6-5.8,20.6-12.5,30.8-19
		c2.2-1.4,3.4-1.1,4.8,1c2.1,3.1,4.5,6,6.8,9c1.1,1.4,0.9,2.2-0.6,3.1c-13,8-26.1,16.1-39.1,24.2c-1.1,0.7-2.3,1-3.5,1
		C44.6,78.3,40.9,78,37.7,78.6z M78.5,54.3c-0.7-1-1.6-2.1-2.3-3.3c-1.1-1.9-2.2-2.1-4.1-0.9c-6.6,4.3-13.4,8.4-20.1,12.6
		c-4.3,2.7-4.2,2.7-1.1,6.7c1,1.2,1.8,1.7,3.3,0.7c7.7-4.8,15.4-9.6,23.1-14.4C77.8,55.5,78.4,55.3,78.5,54.3z M80.9,44.9
		c-0.7,0.2-1.4,0.5-1.8,1.2c-0.4,0.6,0.1,1.1,0.4,1.6c0.8,1.1,1.7,2.3,2.5,3.4c0.9,1.2,1.9,0.6,2.8,0.1c1.3-0.8,0.4-1.5-0.1-2.2
		c-0.7-1-1.5-2-2.2-3C82.1,45.4,81.7,44.9,80.9,44.9z"/>
</g>
</svg>
