<?xml version="1.0" encoding="utf-8"?>
<!-- Generator: Adobe Illustrator 28.0.0, SVG Export Plug-In . SVG Version: 6.00 Build 0)  -->
<svg version="1.1" id="Layer_1" xmlns="http://www.w3.org/2000/svg" xmlns:xlink="http://www.w3.org/1999/xlink" x="0px" y="0px"
	 viewBox="0 0 127 127" style="enable-background:new 0 0 127 127;" xml:space="preserve">
<style type="text/css">
	.st0{fill:#F36D46;}
</style>
<g>
	<path class="st0" d="M30.1,72.9c-7.1-15.8,2.4-26,12.1-24.6c0.1-1.1,0.4-2.3,0.4-3.4c0-9.2,0-18.4,0-27.6c0-3.7,0.5-4.1,4.1-4.1
		c22,0,43.9,0,65.9,0c3.4,0,4,0.6,4,4c0,14.1,0,28.1,0,42.2c0,3.4-0.8,4.2-4.2,4.2c-6.9,0-13.7-0.1-20.6,0.1c-1.6,0-3.3,0.5-4.6,1.3
		c-6.3,3.6-12.5,7.3-18.7,11c-3.3,1.9-4.8,1.1-4.8-2.7c0-2.6,0.1-5.2-0.1-7.7c-0.1-0.7-1.2-1.4-1.9-1.9c-0.3-0.2-0.9-0.1-1.3,0
		c-2.6,0.1-5.9-0.7-7.7,0.5c-1.7,1.1-1.8,4.6-2.7,6.9c-0.6,1.4-0.3,2.2,1.1,2.8c3.2,1.4,6.3,3,9.4,4.5c5.5,2.7,8.6,7,8.7,13.2
		c0.1,6.2,0,12.5,0,18.7c0,2.7-1.2,3.5-3.7,3.5c-17.2,0-34.4,0-51.6,0c-3.1,0-3.6-0.6-3.6-3.8c0-5.9,0-11.8,0-17.6
		c0-6.6,3.2-11.1,9-14C22.9,76.5,26.4,74.7,30.1,72.9z M68.4,70.2c1.6-0.9,2.5-1.3,3.3-1.8c4.7-2.8,9.4-5.7,14.2-8.3
		c1.5-0.8,3.4-1.4,5.1-1.4c6-0.2,12.1-0.1,18.1,0c2.1,0,2.7-0.7,2.7-2.7c-0.1-11.7,0-23.5,0-35.2c0-2-0.6-2.7-2.7-2.7
		c-19.7,0.1-39.3,0.1-59,0c-2.2,0-2.8,0.8-2.7,2.9c0.1,7.6,0.1,15.2,0,22.9c-0.1,4.1-0.4,8.2,2.8,11.6c0.4,0.4,0.5,1,0.7,1.5
		c0.4,1.5,1.4,1.9,2.9,1.9c3.7-0.1,7.3,0,11,0c2.4,0,3.8,1,3.7,3.6C68.3,64.6,68.4,67,68.4,70.2z M39.2,109.7c4.3,0,8.6,0,12.9,0
		c0.1,0,0.2,0,0.3,0c1.9,0.2,2.6-0.7,2.5-2.5c-0.1-3.5-0.1-7,0-10.5c0-0.6,0.5-1.2,0.8-1.8c0.4,0.6,1,1.2,1.1,1.8
		c0.1,2.4,0,4.8,0.1,7.2c0.1,6.5-1,5.7,5.9,5.8c2.1,0,2.6-0.9,2.6-2.8c-0.1-4.7-0.1-9.4,0-14c0.1-5.2-2.3-8.9-7-11.1
		C54.6,80,50.8,78,47,76.3c-2.3-1-2.9-2.3-1.7-4.7c1.8-3.6,3.3-7.4,2.5-11.6c-0.8-4.2-4.2-7.7-7.7-7.9c-3.5-0.1-6.9,2.8-8,7
		c-1.2,4.3,0.1,8.2,2,11.9c1.6,3.2,1.5,3.6-1.7,5.2c-3.7,1.8-7.3,3.7-11,5.5c-4.8,2.3-7.2,6.1-7.1,11.4c0,3.8,0,7.5,0,11.3
		c0,5.4,0,5.4,5.4,5.2c1.8-0.1,2.4-0.7,2.4-2.4c-0.1-3.5-0.1-7,0-10.5c0-0.7,0.6-1.3,1-1.9c0.3,0.6,0.9,1.3,0.9,1.9
		c0.1,3.5,0.1,7,0,10.5c0,1.8,0.7,2.4,2.4,2.4C30.6,109.6,34.9,109.7,39.2,109.7z"/>
	<path class="st0" d="M80,37.6c-6.8,0-13.5,0-20.3,0c-0.8,0-1.7,0.7-2.5,1c0.9,0.4,1.7,1.2,2.6,1.2c13.5,0.1,27.1,0.1,40.6,0
		c0.8,0,1.7-0.7,2.5-1c-0.9-0.4-1.7-1.2-2.6-1.2C93.6,37.5,86.8,37.6,80,37.6z M57.2,30.1c0,0.3-0.1,0.6-0.1,0.9
		c0.8,0.3,1.6,0.7,2.4,0.7c13.8,0,27.6,0,41.4,0c0.4,0,0.8,0.1,1.1-0.1c0.4-0.3,0.7-0.7,1-1.1c-0.3-0.3-0.6-0.7-1-0.8
		c-0.5-0.1-1.1-0.1-1.6-0.1c-13.5,0-27,0-40.6,0C58.9,29.7,58.1,29.9,57.2,30.1z M80.1,47.7c6.8,0,13.5,0,20.3,0
		c0.9,0,1.7-0.6,2.5-0.9c-0.8-0.4-1.6-1-2.4-1c-13.6-0.1-27.2-0.1-40.8,0c-0.8,0-1.6,0.7-2.4,1c0.9,0.3,1.7,0.9,2.6,0.9
		C66.6,47.8,73.3,47.7,80.1,47.7z"/>
	<path class="st0" d="M80,37.6c6.8,0,13.5,0,20.3,0.1c0.9,0,1.7,0.8,2.6,1.2c-0.8,0.4-1.7,1-2.5,1c-13.5,0.1-27.1,0.1-40.6,0
		c-0.9,0-1.7-0.8-2.6-1.2c0.8-0.4,1.7-1,2.5-1C66.5,37.5,73.3,37.6,80,37.6z"/>
	<path class="st0" d="M57.2,30.1c0.8-0.1,1.7-0.3,2.5-0.3c13.5,0,27,0,40.6,0c0.5,0,1.1-0.1,1.6,0.1c0.4,0.1,0.7,0.5,1,0.8
		c-0.3,0.4-0.6,0.8-1,1.1c-0.3,0.2-0.7,0.1-1.1,0.1c-13.8,0-27.6,0-41.4,0c-0.8,0-1.6-0.5-2.4-0.7C57.2,30.7,57.2,30.4,57.2,30.1z"
		/>
	<path class="st0" d="M80.1,47.7c-6.8,0-13.5,0-20.3,0c-0.9,0-1.7-0.6-2.6-0.9c0.8-0.4,1.6-1,2.4-1c13.6-0.1,27.2-0.1,40.8,0
		c0.8,0,1.6,0.7,2.4,1c-0.8,0.3-1.7,0.9-2.5,0.9C93.6,47.8,86.8,47.7,80.1,47.7z"/>
</g>
</svg>
