<?xml version="1.0" encoding="utf-8"?>
<!-- Generator: Adobe Illustrator 28.0.0, SVG Export Plug-In . SVG Version: 6.00 Build 0)  -->
<svg version="1.1" id="Layer_1" xmlns="http://www.w3.org/2000/svg" xmlns:xlink="http://www.w3.org/1999/xlink" x="0px" y="0px"
	 viewBox="0 0 127 127" style="enable-background:new 0 0 127 127;" xml:space="preserve">
<style type="text/css">
	.st0{fill:#FF6D43;}
</style>
<g id="_x32_TaPWq.tif">
	<g>
		<path class="st0" d="M30.4,86.6c0-3.1-0.2-6.1,0.1-9.2c0.2-2.4-0.8-4.3-1.9-6.3C28,70,27,70,26,70c-8.1-0.3-8.6-0.9-8.6-8.8
			c0-4,0-8,0-11.9c0-4.6,1.6-6.2,6.1-6.1c2.5,0,4.8,0.2,6-3c0.6-1.7,2.8-1.9,4.6-1.9c3-0.1,6-0.1,9,0c3.7,0.2,7.2-0.4,10.7-1.7
			c9.5-3.4,19.1-6.6,28.7-9.8c1.2-0.4,2-0.9,2.1-2.3c0.2-1.9,1.5-2.9,3.3-3.2c3-0.6,6.1-0.6,9.2-0.1c2.9,0.5,4,1.9,4,4.8
			c0.1,4.1,0,8.1,0,12.2c0,1.3,0.1,2.5,1.5,3.1c2.7,1.3,4.2,3.7,5.2,6.4c2.5,6.6,2.3,13.1-0.9,19.5c-1,1.9-2.2,3.5-4.2,4.4
			c-1.4,0.6-1.6,1.7-1.6,3c0,4,0,8,0,11.9c0,3.7-1.6,5.3-5.3,5.4c-2.1,0.1-4.1,0.1-6.2,0c-3-0.1-4.2-1-5.1-4
			c-0.3-1.1-1.1-1.4-1.9-1.7C72.1,82.6,61.5,79,50.9,75.3c-2-0.7-2.4,0-2.4,1.9c0.1,6.7,0,13.4,0,20.1c0,5.5-3.4,9-8.7,9.1
			c-5.3,0.1-9.2-3.5-9.4-8.9C30.3,93.9,30.4,90.2,30.4,86.6C30.4,86.6,30.4,86.6,30.4,86.6z M84.6,56.6c0-7.6,0-15.3,0-22.9
			c0-2.2-0.7-2.6-2.7-1.9c-9.6,3.3-19.3,6.6-29,9.8c-1.5,0.5-2.1,1.4-2,2.9c0.1,7.8,0,15.6,0,23.4c0,1.5,0.5,2.4,2,2.9
			c9.7,3.3,19.5,6.6,29.2,10c2.2,0.8,2.5,0,2.5-1.9C84.5,71.6,84.6,64.1,84.6,56.6z M96.1,56.8c0-9.4-0.1-18.7,0.1-28.1
			c0-2.8-1.4-3-3.5-3c-2.1,0-3.4,0.2-3.4,2.9c0.1,18.5,0,37,0,55.5c0,3.1,0.1,3.1,3.5,3.2c2.4,0.1,3.4-0.5,3.4-3.1
			C96,75.1,96.1,65.9,96.1,56.8z M46.3,56.7c0-3.7,0-7.4,0-11.2c0-1.7-0.7-2.4-2.4-2.3c-2.7,0.1-5.5,0.1-8.2,0
			c-1.5,0-2.3,0.6-2.3,2.2c0,7.4,0,14.9,0,22.3c0,1.6,0.7,2.2,2.3,2.2c2.6-0.1,5.3-0.1,7.9,0c1.9,0.1,2.7-0.6,2.6-2.6
			C46.2,63.8,46.3,60.2,46.3,56.7z M35.5,87c0,3.3,0,6.6,0,9.9c0,0.2,0,0.3,0,0.5c0,1.7,0.5,3.1,2.3,3.7c3.4,1.2,6.1-0.6,6.1-4.2
			c0-5.5,0.1-11.1,0-16.6c-0.1-6.4,1-5.6-5.9-5.7c-1.8,0-2.5,0.6-2.5,2.5C35.5,80.3,35.5,83.6,35.5,87z M28.4,56.2
			c0-2.1,0-4.3,0-6.4c0.1-1.9-1.2-2.1-2.6-2c-1.4,0.1-3.2-0.6-3.2,1.9c0,4.5,0,8.9,0,13.4c0,2.2,1.6,1.9,3,1.9c1.5,0,2.9,0.1,2.9-2
			C28.4,60.7,28.4,58.5,28.4,56.2z M101.4,46.6c0,6.8,0,13.2,0,19.9C105.7,61,105.6,50.8,101.4,46.6z"/>
	</g>
</g>
</svg>
