<?xml version="1.0" encoding="utf-8"?>
<!-- Generator: Adobe Illustrator 28.0.0, SVG Export Plug-In . SVG Version: 6.00 Build 0)  -->
<svg version="1.1" id="Layer_1" xmlns="http://www.w3.org/2000/svg" xmlns:xlink="http://www.w3.org/1999/xlink" x="0px" y="0px"
	 viewBox="0 0 127 127" style="enable-background:new 0 0 127 127;" xml:space="preserve">
<style type="text/css">
	.st0{fill:#FF6D43;}
</style>
<g>
	<path class="st0" d="M15.2,71.8c0-11.9,0-23.7,0-35.6c0-4.2,0.8-5,5-5c6.4,0,12.7-0.1,19.1,0c2.1,0,3.5-0.2,3.5-2.9
		c0-2.4,1.7-3.6,4-3.4c2.4,0.2,3.3-0.7,3.3-3.2c0-7.4,0.2-7.5,7.7-7.5c16,0,31.9,0,47.9,0c5.5,0,6.2,0.7,6.2,6.2
		c0,13.4,0,26.8,0,40.2c0,4.1-0.8,4.9-5,5c-0.9,0-1.7,0-2.6,0c-7,0.3-14-0.6-21,0.5c-1.3,7-0.4,14.1-0.6,21.2
		c-0.2,6.6,0,13.3,0,19.9c0,4.6-1,5.6-5.5,5.6c-18.8,0-37.6,0-56.4,0c-4.8,0-5.6-0.8-5.6-5.7C15.2,95.4,15.2,83.6,15.2,71.8z
		 M21.2,72c0,10.3,0.1,20.7,0,31c0,2.4,0.6,3.4,3.2,3.4c16.2-0.1,32.5-0.1,48.7,0c2.5,0,3.3-0.9,3.2-3.3c-0.1-11.4-0.1-22.8,0-34.2
		c0-2.6-0.9-3.5-3.5-3.4c-8.3,0.1-16.5,0.1-24.8,0c-4.5,0-5.4-0.9-5.4-5.3c0-6.6-0.1-13.1,0-19.7c0-2.2-0.7-3.1-3-3
		c-5,0.1-10.1,0.1-15.1,0c-2.6-0.1-3.5,0.9-3.4,3.5C21.3,51.4,21.2,61.7,21.2,72z M72.3,59.1c6.6,0,13.3-0.1,19.9,0
		c2.4,0,3.4-0.7,3.3-3.2c-0.1-7.1-0.1-14.2,0-21.3c0-2.4-0.7-3.4-3.2-3.3c-13.4,0.1-26.8,0.1-40.1,0c-2.3,0-3.2,0.7-3.2,3.1
		c0.1,7.2,0.1,14.4,0,21.6c0,2.3,0.8,3.2,3.1,3.2C58.9,59.1,65.6,59.1,72.3,59.1z M80.9,20.6c-7.4,0-14.8,0-22.2,0
		c-2.3,0-3.3,1.2-2.6,3.1c0.6,1.6,2,1.1,3.2,1.1c12.3,0,24.7,0,37,0c4.8,0,5.7,0.9,5.7,5.6c0,8.5,0,17.1,0,25.6c0,1.4-0.1,3,2.1,3
		c2.1-0.1,1.7-1.6,1.7-2.9c0-10.8-0.1-21.6,0.1-32.4c0-2.6-1-3.2-3.4-3.2C95.3,20.7,88.1,20.6,80.9,20.6z"/>
	<path class="st0" d="M33.2,71.3c0,7.9,0,15.7,0,23.6c0,0.9,0,1.7-0.1,2.6c-0.1,0.8-0.5,1.5-1.4,1.6c-1,0.1-1.6-0.5-1.8-1.4
		c-0.2-1-0.3-2.1-0.3-3.1c0-15.6,0-31.1,0-46.7c0-1.7-0.6-4.3,1.9-4.3c2.4,0,1.6,2.6,1.6,4.1C33.2,55.6,33.2,63.5,33.2,71.3z"/>
	<path class="st0" d="M54.3,73.6c-4.2,0-8.3,0-12.5,0c-1.2,0-2.8,0.1-2.8-1.6c0-1.8,1.6-1.9,2.9-1.9c8.3,0,16.7,0,25,0
		c1.3,0,3,0.2,2.8,2c-0.1,1.7-1.7,1.5-2.9,1.5C62.7,73.6,58.5,73.6,54.3,73.6z"/>
	<path class="st0" d="M54.3,82.1c-4.2,0-8.3,0-12.5,0c-1.3,0-2.7-0.1-2.8-1.8c-0.1-1.8,1.4-1.8,2.6-1.8c8.4,0,16.9,0,25.3,0
		c1.2,0,2.7,0.1,2.8,1.7c0,1.9-1.6,1.8-2.9,1.8C62.6,82.1,58.4,82.1,54.3,82.1z"/>
	<path class="st0" d="M54.2,90.6c-4.1,0-8.1,0-12.2,0c-1.3,0-3-0.1-3-1.9c0-1.9,1.7-1.7,3-1.7c8.2,0,16.5,0,24.7,0
		c1.3,0,3-0.2,3,1.7c0,1.8-1.7,1.8-3,1.8C62.6,90.6,58.4,90.6,54.2,90.6z"/>
	<path class="st0" d="M54.4,98.7c-4.2,0-8.3,0-12.5,0c-1.2,0-2.8,0.1-2.9-1.6c-0.1-1.8,1.5-2,2.9-2c8.3,0,16.7,0,25,0
		c1.4,0,2.9,0.2,2.9,2c-0.1,1.7-1.6,1.6-2.9,1.6C62.7,98.7,58.6,98.7,54.4,98.7z"/>
</g>
</svg>
